<svg xmlns="http://www.w3.org/2000/svg" xmlns:xlink="http://www.w3.org/1999/xlink" width="163" height="55" viewBox="0 0 163 55">
  <defs>
    <clipPath id="clip-logo">
      <rect width="163" height="55"/>
    </clipPath>
  </defs>
  <g id="logo" clip-path="url(#clip-logo)">
    <rect width="163" height="55" fill="#fff"/>
    <g id="Group_349" data-name="Group 349" transform="translate(-40.989 -38.997)">
      <g id="Group_3" data-name="Group 3" transform="translate(40.989 42.327)">
        <path id="Path_1" data-name="Path 1" d="M49.345,42.493l-8.356,8.355V83.681l8.356,6.982h9.74V42.493Zm5.419,35.656-1.9,1.8H47.4l-1.906-1.8V71.363l1.906-1.8H52.86l1.9,1.8Zm0-15.745-1.9,1.8H47.4L45.49,62.4V55.622l1.906-1.8H52.86l1.9,1.8Z" transform="translate(-40.989 -42.322)" fill="#ff8046"/>
        <path id="Path_2" data-name="Path 2" d="M57.349,90.667H84.706l8.843-8.838V51.166l-8.843-8.839H62.037V60.552H84.329l2.833-2.832-8.1-8.114H70.049v3.91h7.187l3.294,3.129H65.944V46.239H83.085l6.552,6.548V63.892H61.98V67.8h6.763l-9.151,9.011h5.582L74.312,67.8h5.732ZM85.57,67.8h4.067v7.448h-5.8L72.386,86.757H66.614ZM83.085,86.757H77.9l7.561-7.6h4.177v1.051Z" transform="translate(-40.49 -42.327)" fill="#ff8046"/>
      </g>
      <g id="Group_4" data-name="Group 4" transform="translate(105.257 45.125)">
        <path id="Path_3" data-name="Path 3" d="M171.386,53.743h-2.605a2.6,2.6,0,0,1-1.914-.614,1.925,1.925,0,0,1-.5-1.279v-.695l6.948-3-.7-1.627-6.247,2.7V45.3h-1.773v6.509a3.657,3.657,0,0,0,.982,2.527,4.244,4.244,0,0,0,3.207,1.175h2.64A3.367,3.367,0,0,0,174.759,52h-1.773A1.582,1.582,0,0,1,171.386,53.743Z" transform="translate(-101.489 -45.034)" fill="#2b333b"/>
        <path id="Path_4" data-name="Path 4" d="M141.057,54.482h8.979v1.773h-8.113l-1.041,1.454h8.9v5.956a3.7,3.7,0,0,1-.989,2.53,4.08,4.08,0,0,1-3.069,1.135h-1.051V65.557h1.051a2.4,2.4,0,0,0,1.794-.593,1.987,1.987,0,0,0,.5-1.263l0-4.218h-.328l-5.65,7.824h-1.848l5.653-7.824H143.7l-5.653,7.824H136.2l5.654-7.824h-2.242l-5.6,7.824h-2.178l7.906-11.052H135.59V54.482h5.467Z" transform="translate(-102.488 -44.754)" fill="#2b333b"/>
        <path id="Path_5" data-name="Path 5" d="M103.356,65.953l.109,1.769c8.561-.517,10.444-9.847,10.242-14.671V51.2h8.624V63.985a1.971,1.971,0,0,1-.5,1.263,2.382,2.382,0,0,1-1.791.593H114.9v1.773h5.143a4.089,4.089,0,0,0,3.072-1.135,3.714,3.714,0,0,0,.988-2.53V49.429h-10.4v-4.26h-1.77v4.26h-7.211V51.2h7.211v1.887C111.943,53.21,112.342,65.411,103.356,65.953Z" transform="translate(-103.356 -45.038)" fill="#2b333b"/>
        <path id="Path_6" data-name="Path 6" d="M148.53,48.444h-7.994v1.6h6.221v1.6h-7.913v-4.7h9.808V45.169H137.07v8.244H148.53Z" transform="translate(-102.328 -45.038)" fill="#2b333b"/>
        <path id="Path_7" data-name="Path 7" d="M171.386,65.386h-2.605a2.606,2.606,0,0,1-1.914-.614,1.926,1.926,0,0,1-.5-1.28v-.685l7.552-3.264-.7-1.626-6.852,2.961V56.2h-1.773v7.252a3.657,3.657,0,0,0,.982,2.529,4.252,4.252,0,0,0,3.207,1.175h2.64a3.366,3.366,0,0,0,3.338-3.513h-1.773A1.586,1.586,0,0,1,171.386,65.386Z" transform="translate(-101.489 -44.702)" fill="#2b333b"/>
        <path id="Path_8" data-name="Path 8" d="M163.22,52.519,163.837,51l-2.992-2.914-1.238,1.268,1.431,1.393h-5.205l3.345-4.672-1.44-1.031-4.347,6.074.72,1.4Z" transform="translate(-101.83 -45.042)" fill="#2b333b"/>
        <rect id="Rectangle_3" data-name="Rectangle 3" width="5.422" height="1.773" transform="matrix(0.583, -0.812, 0.812, 0.583, 84.093, 18.932)" fill="#2b333b"/>
        <rect id="Rectangle_4" data-name="Rectangle 4" width="1.773" height="5.421" transform="translate(93.372 15.561) rotate(-35.631)" fill="#2b333b"/>
        <rect id="Rectangle_5" data-name="Rectangle 5" width="1.774" height="4.357" transform="translate(76.359 1.67) rotate(-54.582)" fill="#2b333b"/>
        <rect id="Rectangle_6" data-name="Rectangle 6" width="8.808" height="1.774" transform="translate(75.174 20.84) rotate(-66.937)" fill="#2b333b"/>
        <rect id="Rectangle_7" data-name="Rectangle 7" width="1.772" height="3.938" transform="matrix(0.583, -0.812, 0.812, 0.583, 75.641, 7.72)" fill="#2b333b"/>
        <path id="Path_9" data-name="Path 9" d="M156.838,60.913v1.77h4.719v1.038a1.927,1.927,0,0,1-.5,1.261,2.541,2.541,0,0,1-1.872.6V67.36a4.2,4.2,0,0,0,3.163-1.16,3.644,3.644,0,0,0,.985-2.5V53.486h-9.362V67.541h1.77V55.259h5.818V57.22h-4.719V58.99h4.719v1.923Z" transform="translate(-101.813 -44.785)" fill="#2b333b"/>
        <path id="Path_10" data-name="Path 10" d="M184.969,47.253h6.847L190.2,49.51H186.49v8.979h5v5.486a1.973,1.973,0,0,1-.5,1.263,2.389,2.389,0,0,1-1.792.593h-1.67V67.6h1.67a4.082,4.082,0,0,0,3.07-1.135,3.7,3.7,0,0,0,.988-2.53V58.489h4.17V53.157h-7.611V54.93h5.838v1.789H188.26V51.284h9.234V49.51h-5.116L194,47.253h4.609V45.481H183.2v9.026c0,.083.112,8.161-3.556,11.38l1.169,1.333c4.284-3.756,4.168-12.381,4.161-12.73Z" transform="translate(-101.03 -45.029)" fill="#2b333b"/>
        <path id="Path_11" data-name="Path 11" d="M134.555,46.663h-6.449v16.3h6.449Zm-1.776,1.769V53.72h-2.9V48.432Zm-2.9,12.757v-5.7h2.9v5.7Z" transform="translate(-102.601 -44.993)" fill="#2b333b"/>
        <path id="Path_12" data-name="Path 12" d="M108.15,78.01c-.376.739-.71,1.377-.985,2.015h-.027c-.306-.681-.595-1.276-.973-2.015l-1.377-2.7h-1.432l3.084,5.623v4.144h1.275V80.922l3.276-5.608h-1.435Z" transform="translate(-103.356 -44.119)" fill="#2b333b"/>
        <path id="Path_13" data-name="Path 13" d="M114.4,80.933c-.911-.347-1.332-.608-1.332-1.188,0-.522.421-.957,1.173-.957a2.733,2.733,0,0,1,1.437.407l.318-.927a3.5,3.5,0,0,0-1.725-.435,2.162,2.162,0,0,0-2.42,2.058c0,.84.595,1.535,1.856,1.986.942.346,1.3.68,1.3,1.288,0,.58-.437,1.044-1.363,1.044a3.338,3.338,0,0,1-1.68-.507l-.319.971a3.987,3.987,0,0,0,1.97.477c1.666,0,2.623-.869,2.623-2.1C116.241,82,115.617,81.4,114.4,80.933Z" transform="translate(-103.103 -44.042)" fill="#2b333b"/>
        <path id="Path_14" data-name="Path 14" d="M121.734,77.832a3.425,3.425,0,0,0-3.479,3.724,3.335,3.335,0,0,0,3.362,3.608,3.429,3.429,0,0,0,3.493-3.724A3.322,3.322,0,0,0,121.734,77.832Zm-.058,6.376c-1.248,0-2.131-1.159-2.131-2.695,0-1.334.652-2.726,2.158-2.726s2.1,1.509,2.1,2.7C123.805,83.063,122.892,84.208,121.676,84.208Z" transform="translate(-102.902 -44.042)" fill="#2b333b"/>
        <rect id="Rectangle_8" data-name="Rectangle 8" width="1.273" height="10.288" transform="translate(24.901 30.674)" fill="#2b333b"/>
        <path id="Path_15" data-name="Path 15" d="M136.834,80.7c0-1.4-.521-2.869-2.666-2.869a4.369,4.369,0,0,0-2.305.622l.291.842a3.5,3.5,0,0,1,1.827-.522,1.445,1.445,0,0,1,1.592,1.623v.144c-2.71-.013-4.216.913-4.216,2.608a2,2,0,0,0,2.144,2.015,2.612,2.612,0,0,0,2.145-1.044h.042l.1.884h1.16a9.793,9.793,0,0,1-.116-1.681ZM135.6,82.642a1.311,1.311,0,0,1-.074.406,1.739,1.739,0,0,1-1.693,1.174,1.128,1.128,0,0,1-1.2-1.217c0-1.362,1.581-1.609,2.971-1.58Z" transform="translate(-102.502 -44.042)" fill="#2b333b"/>
        <path id="Path_16" data-name="Path 16" d="M140.881,79.367h-.057l-.042-1.376h-1.118c.044.651.06,1.361.06,2.187V85h1.259V81.267a3.71,3.71,0,0,1,.059-.595,1.787,1.787,0,0,1,1.711-1.637,1.917,1.917,0,0,1,.434.043v-1.2a1.39,1.39,0,0,0-.363-.043A2.107,2.107,0,0,0,140.881,79.367Z" transform="translate(-102.249 -44.042)" fill="#2b333b"/>
        <path id="Path_17" data-name="Path 17" d="M154.03,76.218a4.612,4.612,0,0,1,1.971.4l.3-1.029a5.258,5.258,0,0,0-2.319-.434,4.859,4.859,0,0,0-5.1,5.129,4.563,4.563,0,0,0,4.824,4.941,6.261,6.261,0,0,0,2.579-.463l-.262-1a5.042,5.042,0,0,1-2.058.4c-2.375,0-3.751-1.535-3.751-3.926C150.22,77.682,151.741,76.218,154.03,76.218Z" transform="translate(-101.968 -44.124)" fill="#2b333b"/>
        <path id="Path_18" data-name="Path 18" d="M161.445,77.832a3.425,3.425,0,0,0-3.479,3.724,3.335,3.335,0,0,0,3.362,3.608,3.429,3.429,0,0,0,3.493-3.724A3.322,3.322,0,0,0,161.445,77.832Zm-.058,6.376c-1.248,0-2.131-1.159-2.131-2.695,0-1.334.652-2.726,2.158-2.726s2.1,1.509,2.1,2.7C163.516,83.063,162.6,84.208,161.387,84.208Z" transform="translate(-101.691 -44.042)" fill="#2b333b"/>
        <path id="Path_19" data-name="Path 19" d="M167.468,83.175A.915.915,0,0,0,167.455,85a.915.915,0,0,0,.012-1.826Z" transform="translate(-101.428 -43.879)" fill="#2b333b"/>
        <path id="Path_20" data-name="Path 20" d="M170.055,86.629l.914-.088a17.648,17.648,0,0,0,1.376-3.521l-1.42.145A20.691,20.691,0,0,1,170.055,86.629Z" transform="translate(-101.322 -43.884)" fill="#2b333b"/>
        <path id="Path_21" data-name="Path 21" d="M180.157,75.314H178.9v9.767h5.434V84.023h-4.175Z" transform="translate(-101.053 -44.119)" fill="#2b333b"/>
        <path id="Path_22" data-name="Path 22" d="M188.048,76.032l-1.245.334v1.681h-1.088v.971H186.8v3.825a2.591,2.591,0,0,0,.493,1.826,1.759,1.759,0,0,0,1.375.535,3.13,3.13,0,0,0,1.133-.173l-.06-.956a2.794,2.794,0,0,1-.74.088c-.708,0-.955-.494-.955-1.362V79.017h1.826v-.971h-1.826Z" transform="translate(-100.845 -44.097)" fill="#2b333b"/>
        <path id="Path_23" data-name="Path 23" d="M198.185,74.809h-1.276V79h-.029a2.343,2.343,0,0,0-2.116-1.073c-1.71,0-3.159,1.434-3.143,3.767,0,2.13,1.3,3.564,3,3.564a2.591,2.591,0,0,0,2.39-1.377h.029L197.1,85.1h1.145c-.044-.477-.057-1.188-.057-1.812Zm-1.276,7.346a2.218,2.218,0,0,1-.057.55,1.918,1.918,0,0,1-1.871,1.522c-1.377,0-2.071-1.174-2.071-2.595,0-1.549.783-2.709,2.1-2.709a1.876,1.876,0,0,1,1.841,1.478,2.267,2.267,0,0,1,.057.536Z" transform="translate(-100.665 -44.135)" fill="#2b333b"/>
      </g>
    </g>
  </g>
</svg>
